# xmcd CD database file
#
# Track frame offsets:
#        150
#        15912
#        31335
#        52277
#        71587
#        95339
#        111460
#        126584
#        141353
#        156014
#
# Disc length: 2247 seconds
#
# Revision: 0
# Processed by: cddbd v1.5.2PL0 Copyright (c) Steve Scherf et al.
# Submitted via: CUERipper 2.1.4
#
DISCID=8e08c50a
DTITLE=Amund Maarud - Dirt
DYEAR=2012
DGENRE=Blues
TTITLE0=Hillside Blues
TTITLE1=Your Star is Fading
TTITLE2=Graintrain Captain
TTITLE3=Dirty Laundry
TTITLE4=Running on Empty
TTITLE5=Dust and Grain
TTITLE6=Honey Bee
TTITLE7=She's Never Happy
TTITLE8=Anywhere You Go
TTITLE9=Homeward Bound
EXTD=
EXTT0=
EXTT1=
EXTT2=
EXTT3=
EXTT4=
EXTT5=
EXTT6=
EXTT7=
EXTT8=
EXTT9=
PLAYORDER=
